<mxfile host="app.diagrams.net" modified="2022-09-25T22:11:12.668Z" agent="5.0 (X11; Ubuntu)" etag="q74XUEP6twsuiUvwq6qk" version="20.3.6" type="github">
  <diagram id="C5RBs43oDa-KdzZeNtuy" name="Page-1">
    <mxGraphModel dx="1185" dy="1830" grid="1" gridSize="10" guides="1" tooltips="1" connect="1" arrows="1" fold="1" page="1" pageScale="1" pageWidth="827" pageHeight="1169" math="0" shadow="0">
      <root>
        <mxCell id="WIyWlLk6GJQsqaUBKTNV-0" />
        <mxCell id="WIyWlLk6GJQsqaUBKTNV-1" parent="WIyWlLk6GJQsqaUBKTNV-0" />
        <mxCell id="wrDfZSlrxtOiD5VSxPi5-12" value="" style="shape=folder;fontStyle=1;spacingTop=10;tabWidth=40;tabHeight=14;tabPosition=left;html=1;" parent="WIyWlLk6GJQsqaUBKTNV-1" vertex="1">
          <mxGeometry x="30" y="69" width="770" height="721" as="geometry" />
        </mxCell>
        <mxCell id="zkfFHV4jXpPFQw0GAbJ--0" value="Conteudo" style="swimlane;fontStyle=3;align=center;verticalAlign=top;childLayout=stackLayout;horizontal=1;startSize=26;horizontalStack=0;resizeParent=1;resizeLast=0;collapsible=1;marginBottom=0;rounded=0;shadow=0;strokeWidth=1;" parent="WIyWlLk6GJQsqaUBKTNV-1" vertex="1">
          <mxGeometry x="430" y="200" width="220" height="186" as="geometry">
            <mxRectangle x="230" y="140" width="160" height="26" as="alternateBounds" />
          </mxGeometry>
        </mxCell>
        <mxCell id="zkfFHV4jXpPFQw0GAbJ--1" value="- id: int&#xa;- titulo: String&#xa;- descricao: String&#xa;- genero: String&#xa;- ano: int&#xa;- elencoPrincipal: List&lt;Ator&gt;&#xa;- elencoSecundario:List&lt;Ator&gt;&#xa;" style="text;align=left;verticalAlign=top;spacingLeft=4;spacingRight=4;overflow=hidden;rotatable=0;points=[[0,0.5],[1,0.5]];portConstraint=eastwest;" parent="zkfFHV4jXpPFQw0GAbJ--0" vertex="1">
          <mxGeometry y="26" width="220" height="104" as="geometry" />
        </mxCell>
        <mxCell id="zkfFHV4jXpPFQw0GAbJ--4" value="" style="line;html=1;strokeWidth=1;align=left;verticalAlign=middle;spacingTop=-1;spacingLeft=3;spacingRight=3;rotatable=0;labelPosition=right;points=[];portConstraint=eastwest;" parent="zkfFHV4jXpPFQw0GAbJ--0" vertex="1">
          <mxGeometry y="130" width="220" height="20" as="geometry" />
        </mxCell>
        <mxCell id="zkfFHV4jXpPFQw0GAbJ--5" value="+ exibirDescricao(): String&#xa;+ xRay(): String" style="text;align=left;verticalAlign=top;spacingLeft=4;spacingRight=4;overflow=hidden;rotatable=0;points=[[0,0.5],[1,0.5]];portConstraint=eastwest;" parent="zkfFHV4jXpPFQw0GAbJ--0" vertex="1">
          <mxGeometry y="150" width="220" height="36" as="geometry" />
        </mxCell>
        <mxCell id="DZhE1i61BC3Zx2hKCrYN-6" style="edgeStyle=orthogonalEdgeStyle;rounded=0;orthogonalLoop=1;jettySize=auto;html=1;" edge="1" parent="WIyWlLk6GJQsqaUBKTNV-1" source="wrDfZSlrxtOiD5VSxPi5-4" target="iSFG6fO-SFgx5UzrBbjB-0">
          <mxGeometry relative="1" as="geometry" />
        </mxCell>
        <mxCell id="DZhE1i61BC3Zx2hKCrYN-12" style="edgeStyle=orthogonalEdgeStyle;rounded=0;orthogonalLoop=1;jettySize=auto;html=1;endArrow=block;endFill=0;" edge="1" parent="WIyWlLk6GJQsqaUBKTNV-1" source="wrDfZSlrxtOiD5VSxPi5-4" target="zkfFHV4jXpPFQw0GAbJ--0">
          <mxGeometry relative="1" as="geometry" />
        </mxCell>
        <mxCell id="wrDfZSlrxtOiD5VSxPi5-4" value="Serie" style="swimlane;fontStyle=1;align=center;verticalAlign=top;childLayout=stackLayout;horizontal=1;startSize=26;horizontalStack=0;resizeParent=1;resizeParentMax=0;resizeLast=0;collapsible=1;marginBottom=0;" parent="WIyWlLk6GJQsqaUBKTNV-1" vertex="1">
          <mxGeometry x="550" y="440" width="230" height="120" as="geometry" />
        </mxCell>
        <mxCell id="wrDfZSlrxtOiD5VSxPi5-5" value="- temporada: int&#xa;- episodios: List&lt;Episodio&gt;&#xa;" style="text;strokeColor=none;fillColor=none;align=left;verticalAlign=top;spacingLeft=4;spacingRight=4;overflow=hidden;rotatable=0;points=[[0,0.5],[1,0.5]];portConstraint=eastwest;" parent="wrDfZSlrxtOiD5VSxPi5-4" vertex="1">
          <mxGeometry y="26" width="230" height="34" as="geometry" />
        </mxCell>
        <mxCell id="wrDfZSlrxtOiD5VSxPi5-6" value="" style="line;strokeWidth=1;fillColor=none;align=left;verticalAlign=middle;spacingTop=-1;spacingLeft=3;spacingRight=3;rotatable=0;labelPosition=right;points=[];portConstraint=eastwest;strokeColor=inherit;" parent="wrDfZSlrxtOiD5VSxPi5-4" vertex="1">
          <mxGeometry y="60" width="230" height="10" as="geometry" />
        </mxCell>
        <mxCell id="wrDfZSlrxtOiD5VSxPi5-7" value="+ cadastrarEpisodio(Episodio): void&#xa;+ deletarEpisodio(Episodio): void&#xa;" style="text;strokeColor=none;fillColor=none;align=left;verticalAlign=top;spacingLeft=4;spacingRight=4;overflow=hidden;rotatable=0;points=[[0,0.5],[1,0.5]];portConstraint=eastwest;" parent="wrDfZSlrxtOiD5VSxPi5-4" vertex="1">
          <mxGeometry y="70" width="230" height="50" as="geometry" />
        </mxCell>
        <mxCell id="wrDfZSlrxtOiD5VSxPi5-13" value="dados" style="text;html=1;align=center;verticalAlign=middle;resizable=0;points=[];autosize=1;strokeColor=none;fillColor=none;" parent="WIyWlLk6GJQsqaUBKTNV-1" vertex="1">
          <mxGeometry x="30" y="60" width="60" height="30" as="geometry" />
        </mxCell>
        <mxCell id="DZhE1i61BC3Zx2hKCrYN-5" style="edgeStyle=orthogonalEdgeStyle;rounded=0;orthogonalLoop=1;jettySize=auto;html=1;" edge="1" parent="WIyWlLk6GJQsqaUBKTNV-1" source="wOn8U4n5jwLCTRrqft90-0" target="wrDfZSlrxtOiD5VSxPi5-4">
          <mxGeometry relative="1" as="geometry">
            <Array as="points">
              <mxPoint x="300" y="540" />
              <mxPoint x="300" y="540" />
            </Array>
          </mxGeometry>
        </mxCell>
        <mxCell id="wOn8U4n5jwLCTRrqft90-0" value="Usuario" style="swimlane;fontStyle=1;align=center;verticalAlign=top;childLayout=stackLayout;horizontal=1;startSize=26;horizontalStack=0;resizeParent=1;resizeParentMax=0;resizeLast=0;collapsible=1;marginBottom=0;" parent="WIyWlLk6GJQsqaUBKTNV-1" vertex="1">
          <mxGeometry x="60" y="440" width="245" height="210" as="geometry" />
        </mxCell>
        <mxCell id="wOn8U4n5jwLCTRrqft90-1" value="- id: int&#xa;- dataNascimento: String&#xa;- nome: String&#xa;- senha: String&#xa;- series: List&lt;Serie&gt;&#xa;- filmes: List&lt;Filme&gt;&#xa;&#xa;" style="text;strokeColor=none;fillColor=none;align=left;verticalAlign=top;spacingLeft=4;spacingRight=4;overflow=hidden;rotatable=0;points=[[0,0.5],[1,0.5]];portConstraint=eastwest;" parent="wOn8U4n5jwLCTRrqft90-0" vertex="1">
          <mxGeometry y="26" width="245" height="94" as="geometry" />
        </mxCell>
        <mxCell id="wOn8U4n5jwLCTRrqft90-2" value="" style="line;strokeWidth=1;fillColor=none;align=left;verticalAlign=middle;spacingTop=-1;spacingLeft=3;spacingRight=3;rotatable=0;labelPosition=right;points=[];portConstraint=eastwest;strokeColor=inherit;" parent="wOn8U4n5jwLCTRrqft90-0" vertex="1">
          <mxGeometry y="120" width="245" height="8" as="geometry" />
        </mxCell>
        <mxCell id="wOn8U4n5jwLCTRrqft90-3" value="+ cadastrarSerie(Serie): void&#xa;+ removerSerie(Serie): void&#xa;+ cadastrarFilme(Filme): void&#xa;+ removerFilme(Filme): void&#xa;+ exibirPorCategoria(): void&#xa;" style="text;strokeColor=none;fillColor=none;align=left;verticalAlign=top;spacingLeft=4;spacingRight=4;overflow=hidden;rotatable=0;points=[[0,0.5],[1,0.5]];portConstraint=eastwest;" parent="wOn8U4n5jwLCTRrqft90-0" vertex="1">
          <mxGeometry y="128" width="245" height="82" as="geometry" />
        </mxCell>
        <mxCell id="wOn8U4n5jwLCTRrqft90-8" value="Ator" style="swimlane;fontStyle=1;align=center;verticalAlign=top;childLayout=stackLayout;horizontal=1;startSize=26;horizontalStack=0;resizeParent=1;resizeParentMax=0;resizeLast=0;collapsible=1;marginBottom=0;" parent="WIyWlLk6GJQsqaUBKTNV-1" vertex="1">
          <mxGeometry x="210" y="216" width="170" height="144" as="geometry" />
        </mxCell>
        <mxCell id="wOn8U4n5jwLCTRrqft90-9" value="- id: int&#xa;- nome: String&#xa;- dataNascimento: String&#xa;- sexo: char&#xa;&#xa;" style="text;strokeColor=none;fillColor=none;align=left;verticalAlign=top;spacingLeft=4;spacingRight=4;overflow=hidden;rotatable=0;points=[[0,0.5],[1,0.5]];portConstraint=eastwest;" parent="wOn8U4n5jwLCTRrqft90-8" vertex="1">
          <mxGeometry y="26" width="170" height="84" as="geometry" />
        </mxCell>
        <mxCell id="wOn8U4n5jwLCTRrqft90-10" value="" style="line;strokeWidth=1;fillColor=none;align=left;verticalAlign=middle;spacingTop=-1;spacingLeft=3;spacingRight=3;rotatable=0;labelPosition=right;points=[];portConstraint=eastwest;strokeColor=inherit;" parent="wOn8U4n5jwLCTRrqft90-8" vertex="1">
          <mxGeometry y="110" width="170" height="8" as="geometry" />
        </mxCell>
        <mxCell id="wOn8U4n5jwLCTRrqft90-11" value="getters &amp; setters" style="text;strokeColor=none;fillColor=none;align=left;verticalAlign=top;spacingLeft=4;spacingRight=4;overflow=hidden;rotatable=0;points=[[0,0.5],[1,0.5]];portConstraint=eastwest;" parent="wOn8U4n5jwLCTRrqft90-8" vertex="1">
          <mxGeometry y="118" width="170" height="26" as="geometry" />
        </mxCell>
        <mxCell id="DZhE1i61BC3Zx2hKCrYN-11" style="edgeStyle=orthogonalEdgeStyle;rounded=0;orthogonalLoop=1;jettySize=auto;html=1;endArrow=block;endFill=0;" edge="1" parent="WIyWlLk6GJQsqaUBKTNV-1" source="wOn8U4n5jwLCTRrqft90-15" target="zkfFHV4jXpPFQw0GAbJ--0">
          <mxGeometry relative="1" as="geometry" />
        </mxCell>
        <mxCell id="wOn8U4n5jwLCTRrqft90-15" value="Filme" style="swimlane;fontStyle=1;align=center;verticalAlign=top;childLayout=stackLayout;horizontal=1;startSize=26;horizontalStack=0;resizeParent=1;resizeParentMax=0;resizeLast=0;collapsible=1;marginBottom=0;" parent="WIyWlLk6GJQsqaUBKTNV-1" vertex="1">
          <mxGeometry x="350" y="440" width="160" height="86" as="geometry" />
        </mxCell>
        <mxCell id="wOn8U4n5jwLCTRrqft90-16" value="- duracao: int" style="text;strokeColor=none;fillColor=none;align=left;verticalAlign=top;spacingLeft=4;spacingRight=4;overflow=hidden;rotatable=0;points=[[0,0.5],[1,0.5]];portConstraint=eastwest;" parent="wOn8U4n5jwLCTRrqft90-15" vertex="1">
          <mxGeometry y="26" width="160" height="26" as="geometry" />
        </mxCell>
        <mxCell id="wOn8U4n5jwLCTRrqft90-17" value="" style="line;strokeWidth=1;fillColor=none;align=left;verticalAlign=middle;spacingTop=-1;spacingLeft=3;spacingRight=3;rotatable=0;labelPosition=right;points=[];portConstraint=eastwest;strokeColor=inherit;" parent="wOn8U4n5jwLCTRrqft90-15" vertex="1">
          <mxGeometry y="52" width="160" height="8" as="geometry" />
        </mxCell>
        <mxCell id="wOn8U4n5jwLCTRrqft90-18" value="getters &amp; setters" style="text;strokeColor=none;fillColor=none;align=left;verticalAlign=top;spacingLeft=4;spacingRight=4;overflow=hidden;rotatable=0;points=[[0,0.5],[1,0.5]];portConstraint=eastwest;" parent="wOn8U4n5jwLCTRrqft90-15" vertex="1">
          <mxGeometry y="60" width="160" height="26" as="geometry" />
        </mxCell>
        <mxCell id="wOn8U4n5jwLCTRrqft90-22" value="" style="shape=folder;fontStyle=1;spacingTop=10;tabWidth=40;tabHeight=14;tabPosition=left;html=1;" parent="WIyWlLk6GJQsqaUBKTNV-1" vertex="1">
          <mxGeometry x="90" y="-280" width="310" height="270" as="geometry" />
        </mxCell>
        <mxCell id="wOn8U4n5jwLCTRrqft90-23" value="&lt;font style=&quot;font-size: 9px;&quot;&gt;negocio&lt;/font&gt;" style="text;html=1;align=center;verticalAlign=middle;resizable=0;points=[];autosize=1;strokeColor=none;fillColor=none;" parent="WIyWlLk6GJQsqaUBKTNV-1" vertex="1">
          <mxGeometry x="80" y="-290" width="60" height="30" as="geometry" />
        </mxCell>
        <mxCell id="wOn8U4n5jwLCTRrqft90-24" value="Sistema" style="swimlane;fontStyle=1;align=center;verticalAlign=top;childLayout=stackLayout;horizontal=1;startSize=26;horizontalStack=0;resizeParent=1;resizeParentMax=0;resizeLast=0;collapsible=1;marginBottom=0;fontSize=12;" parent="WIyWlLk6GJQsqaUBKTNV-1" vertex="1">
          <mxGeometry x="110" y="-240" width="260" height="184" as="geometry" />
        </mxCell>
        <mxCell id="wOn8U4n5jwLCTRrqft90-26" value="" style="line;strokeWidth=1;fillColor=none;align=left;verticalAlign=middle;spacingTop=-1;spacingLeft=3;spacingRight=3;rotatable=0;labelPosition=right;points=[];portConstraint=eastwest;strokeColor=inherit;fontSize=12;" parent="wOn8U4n5jwLCTRrqft90-24" vertex="1">
          <mxGeometry y="26" width="260" height="8" as="geometry" />
        </mxCell>
        <mxCell id="wOn8U4n5jwLCTRrqft90-27" value="+ cadastrarFilme(Filme): boolean&#xa;+ cadastrarSerie(Serie): boolean&#xa;+ cadastrarEp(Episodio): boolean&#xa;+ deletarFilme(Filme): boolean&#xa;+ deletarSerie(Serie): boolean&#xa;+ deletarEp(Episodio): boolean&#xa;+ exibirPorCategoria(): String&#xa;+ exibirDescricao(Conteudo): String&#xa;+ xRay(): String&#xa;" style="text;strokeColor=none;fillColor=none;align=left;verticalAlign=top;spacingLeft=4;spacingRight=4;overflow=hidden;rotatable=0;points=[[0,0.5],[1,0.5]];portConstraint=eastwest;fontSize=12;" parent="wOn8U4n5jwLCTRrqft90-24" vertex="1">
          <mxGeometry y="34" width="260" height="150" as="geometry" />
        </mxCell>
        <mxCell id="iSFG6fO-SFgx5UzrBbjB-0" value="Episodio" style="swimlane;fontStyle=1;align=center;verticalAlign=top;childLayout=stackLayout;horizontal=1;startSize=26;horizontalStack=0;resizeParent=1;resizeParentMax=0;resizeLast=0;collapsible=1;marginBottom=0;" parent="WIyWlLk6GJQsqaUBKTNV-1" vertex="1">
          <mxGeometry x="585" y="585" width="160" height="104" as="geometry" />
        </mxCell>
        <mxCell id="iSFG6fO-SFgx5UzrBbjB-1" value="- id: int&#xa;- duracao: int&#xa;- descricao: String&#xa;" style="text;strokeColor=none;fillColor=none;align=left;verticalAlign=top;spacingLeft=4;spacingRight=4;overflow=hidden;rotatable=0;points=[[0,0.5],[1,0.5]];portConstraint=eastwest;" parent="iSFG6fO-SFgx5UzrBbjB-0" vertex="1">
          <mxGeometry y="26" width="160" height="44" as="geometry" />
        </mxCell>
        <mxCell id="iSFG6fO-SFgx5UzrBbjB-2" value="" style="line;strokeWidth=1;fillColor=none;align=left;verticalAlign=middle;spacingTop=-1;spacingLeft=3;spacingRight=3;rotatable=0;labelPosition=right;points=[];portConstraint=eastwest;strokeColor=inherit;" parent="iSFG6fO-SFgx5UzrBbjB-0" vertex="1">
          <mxGeometry y="70" width="160" height="8" as="geometry" />
        </mxCell>
        <mxCell id="iSFG6fO-SFgx5UzrBbjB-3" value="getters &amp; setters" style="text;strokeColor=none;fillColor=none;align=left;verticalAlign=top;spacingLeft=4;spacingRight=4;overflow=hidden;rotatable=0;points=[[0,0.5],[1,0.5]];portConstraint=eastwest;" parent="iSFG6fO-SFgx5UzrBbjB-0" vertex="1">
          <mxGeometry y="78" width="160" height="26" as="geometry" />
        </mxCell>
        <mxCell id="pWrVxXHS2xjE5jpczrbL-6" style="edgeStyle=orthogonalEdgeStyle;rounded=0;orthogonalLoop=1;jettySize=auto;html=1;" parent="WIyWlLk6GJQsqaUBKTNV-1" source="zkfFHV4jXpPFQw0GAbJ--1" target="wOn8U4n5jwLCTRrqft90-8" edge="1">
          <mxGeometry relative="1" as="geometry">
            <Array as="points">
              <mxPoint x="420" y="288" />
              <mxPoint x="420" y="288" />
            </Array>
          </mxGeometry>
        </mxCell>
        <mxCell id="DZhE1i61BC3Zx2hKCrYN-1" style="edgeStyle=orthogonalEdgeStyle;rounded=0;orthogonalLoop=1;jettySize=auto;html=1;" edge="1" parent="WIyWlLk6GJQsqaUBKTNV-1" source="wOn8U4n5jwLCTRrqft90-1" target="wOn8U4n5jwLCTRrqft90-15">
          <mxGeometry relative="1" as="geometry">
            <Array as="points">
              <mxPoint x="320" y="490" />
              <mxPoint x="320" y="490" />
            </Array>
          </mxGeometry>
        </mxCell>
      </root>
    </mxGraphModel>
  </diagram>
</mxfile>
